<?xml version="1.0" encoding="UTF-8"?>
<svg width="145.134pt" viewBox="0 0 145.134 145.134" xmlns="http://www.w3.org/2000/svg" height="145.134pt" xmlns:inkscape="http://www.inkscape.org/namespaces/inkscape" version="1.1" xmlns:xlink="http://www.w3.org/1999/xlink">
 <title>Microsoft PowerPoint - Presentation1</title>
 <defs>
  <clipPath id="Clip0">
   <path d="M0 0 L113.984 0 L113.984 100.451 L0 100.451 L0 0 Z"/>
  </clipPath>
 </defs>
 <g id="Background" inkscape:label="Background" inkscape:groupmode="layer">
  <g transform="translate(16.5356, 21.52) scale(1, 1)" style="fill:none; stroke:none" id="Group2" clip-path="url(#Clip0)" clip-rule="evenodd">
   <path transform="translate(0.584396, 0)" style="fill:#ffffff; fill-rule:evenodd;stroke:none;" d="M37.8 0 L56.76 35.52 L37.8 71.04 L0 71.04 L37.8 0 Z"/>
   <path transform="translate(57.3444, 0)" style="fill:#ffffff; fill-rule:evenodd;stroke:none;" d="M18.84 0 L56.64 71.04 L18.84 71.04 L0 35.52 L18.84 0 Z"/>
   <g transform="translate(0, 87.7563) scale(1, 1)" style="fill:none; stroke:none" id="Group1">
    <path transform="translate(0, 0.127694)" style="fill:#e6e5e5; fill-rule:nonzero;stroke:none;" d="M0 12.4389 L2.87437 0 L4.36247 0 L7.23684 12.4389 L5.68031 12.4389 L3.618 1.95965 L1.55653 12.4389 L0 12.4389 Z M1.71928 9.5729 L1.71928 8.23002 L5.68031 8.23002 L5.68031 9.5729 L1.71928 9.5729 Z"/>
    <path transform="translate(8.4824, 0.127694)" style="fill:#e6e5e5; fill-rule:nonzero;stroke:none;" d="M0 12.4389 L0 0 L1.42884 0 L1.42884 12.4389 L0 12.4389 Z M0.872995 12.4389 L0.872995 11.096 L5.16703 11.096 L5.16703 12.4389 L0.872995 12.4389 Z"/>
    <path transform="translate(14.7896, 0.127694)" style="fill:#e6e5e5; fill-rule:nonzero;stroke:none;" d="M0 12.4389 L0 0 L1.42884 0 L1.42884 12.4389 L0 12.4389 Z M0.872995 12.4389 L0.872995 11.096 L5.16703 11.096 L5.16703 12.4389 L0.872995 12.4389 Z"/>
    <path transform="translate(21.5332, 7.43381)" style="fill:#e6e5e5; fill-rule:nonzero;stroke:none;" d="M0 0 L4.38 0 L4.38 1.34288 L0 1.34288 L0 0 Z"/>
    <path transform="translate(27.5792, 0.127694)" style="fill:#e6e5e5; fill-rule:nonzero;stroke:none;" d="M4.00359 8.43533 L6.69018 0 L8.00718 0 L8.00718 12.4389 L6.67265 12.4389 L6.67265 2.72915 L6.78365 3.27665 L4.52522 10.5569 L3.48196 10.5569 L1.23187 3.44774 L1.36875 2.72915 L1.36875 12.4389 L0 12.4389 L0 0 L1.35206 0 L4.00359 8.43533 Z"/>
    <path transform="translate(37.3904, 0)" style="fill:#e6e5e5; fill-rule:nonzero;stroke:none;" d="M3.08803 12.6951 C2.43815 12.6951 1.88203 12.5725 1.41966 12.3271 C0.957846 12.0817 0.605644 11.7267 0.363052 11.2621 C0.121017 10.797 0 10.2308 0 9.56371 L0 3.12225 C0 2.45512 0.121017 1.88926 0.363052 1.42467 C0.605644 0.959515 0.957846 0.605922 1.41966 0.363887 C1.88203 0.121296 2.43815 0 3.08803 0 C3.74403 0 4.30154 0.121296 4.76057 0.363887 C5.21961 0.605922 5.57042 0.959515 5.81301 1.42467 C6.0556 1.88926 6.1769 2.45512 6.1769 3.12225 L6.1769 9.56371 C6.1769 10.2308 6.0556 10.797 5.81301 11.2621 C5.57042 11.7267 5.21961 12.0817 4.76057 12.3271 C4.30154 12.5725 3.74403 12.6951 3.08803 12.6951 Z M3.08803 11.3005 C3.61884 11.3005 4.02807 11.1522 4.31573 10.8557 C4.60395 10.5591 4.74806 10.1485 4.74806 9.62381 L4.74806 3.0705 C4.74806 2.53469 4.60395 2.12128 4.31573 1.83028 C4.02807 1.53929 3.61884 1.39379 3.08803 1.39379 C2.56334 1.39379 2.1555 1.53929 1.8645 1.83028 C1.57406 2.12128 1.42884 2.53469 1.42884 3.0705 L1.42884 9.62381 C1.42884 10.1485 1.57406 10.5591 1.8645 10.8557 C2.1555 11.1522 2.56334 11.3005 3.08803 11.3005 Z"/>
    <path transform="translate(45.2744, 0.127694)" style="fill:#e6e5e5; fill-rule:nonzero;stroke:none;" d="M0.855468 12.4389 L0.855468 11.096 L3.49866 11.096 C3.79522 11.096 4.02334 11.0062 4.18303 10.8265 C4.34272 10.6468 4.42256 10.3972 4.42256 10.0778 L4.42256 2.36109 C4.42256 2.04172 4.34272 1.79245 4.18303 1.61329 C4.02334 1.43357 3.79522 1.34371 3.49866 1.34371 L0.855468 1.34371 L0.855468 0 L3.44774 0 C4.2178 0 4.81093 0.209764 5.22712 0.629291 C5.64331 1.04826 5.8514 1.64278 5.8514 2.41284 L5.8514 10.0177 C5.8514 10.5252 5.75737 10.9614 5.56931 11.3264 C5.38124 11.6914 5.10749 11.9682 4.74806 12.1568 C4.38862 12.3449 3.9524 12.4389 3.4394 12.4389 L0.855468 12.4389 Z M0 12.4389 L0 0 L1.42884 0 L1.42884 12.4389 L0 12.4389 Z"/>
    <path transform="translate(52.2096, 0.127694)" style="fill:#e6e5e5; fill-rule:nonzero;stroke:none;" d="M0 12.4389 L2.87437 0 L4.36247 0 L7.23684 12.4389 L5.68031 12.4389 L3.618 1.95965 L1.55653 12.4389 L0 12.4389 Z M1.71928 9.5729 L1.71928 8.23002 L5.68031 8.23002 L5.68031 9.5729 L1.71928 9.5729 Z"/>
    <path transform="translate(60.5168, 0.127694)" style="fill:#e6e5e5; fill-rule:nonzero;stroke:none;" d="M0 12.4389 L0 0 L1.42884 0 L1.42884 12.4389 L0 12.4389 Z M0.872995 12.4389 L0.872995 11.096 L5.16703 11.096 L5.16703 12.4389 L0.872995 12.4389 Z"/>
    <path transform="translate(70.418, 0)" style="fill:#e6e5e5; fill-rule:nonzero;stroke:none;" d="M3.02794 12.6951 C2.36638 12.6951 1.81025 12.5853 1.35957 12.3655 C0.909439 12.1457 0.570312 11.8177 0.342187 11.3815 C0.114062 10.9453 0 10.4078 0 9.76903 L0 9.15309 L1.41966 9.15309 L1.41966 9.74315 C1.41966 10.2678 1.55653 10.6643 1.83028 10.9325 C2.10403 11.2006 2.50325 11.3347 3.02794 11.3347 C3.54706 11.3347 3.93766 11.2006 4.19972 10.9325 C4.46234 10.6643 4.59365 10.2678 4.59365 9.74315 L4.59365 8.82843 C4.59365 8.44062 4.5024 8.12402 4.3199 7.87865 C4.1374 7.63328 3.89926 7.4224 3.60548 7.24602 C3.3117 7.06909 2.9965 6.90356 2.65988 6.74943 C2.34663 6.60087 2.03448 6.44119 1.72346 6.27037 C1.41243 6.099 1.12727 5.89647 0.867987 5.66278 C0.608704 5.42909 0.400609 5.14115 0.243704 4.79897 C0.0867987 4.45678 0.00834603 4.03753 0.00834603 3.54122 L0.00834603 2.87437 C0.00834603 1.92738 0.263456 1.21157 0.773677 0.726939 C1.28445 0.242313 2.03309 0 3.01959 0 C3.98328 0 4.71161 0.246764 5.20458 0.740293 C5.69811 1.23326 5.94488 1.95603 5.94488 2.90859 L5.94488 3.55875 L4.52522 3.55875 L4.52522 2.94281 C4.52522 2.41812 4.39975 2.02169 4.14881 1.7535 C3.89787 1.48531 3.52147 1.35122 3.01959 1.35122 C2.49491 1.35122 2.09847 1.47975 1.83028 1.73681 C1.5621 1.99331 1.42801 2.36666 1.42801 2.85685 L1.42801 3.54957 C1.42801 3.95463 1.53205 4.28123 1.74015 4.52939 C1.9488 4.77755 2.21837 4.98731 2.54888 5.15868 C2.87994 5.3295 3.22491 5.50031 3.58378 5.67113 C3.88035 5.81412 4.17107 5.96546 4.45594 6.12515 C4.74138 6.28484 5.00233 6.47874 5.2388 6.70687 C5.47583 6.93499 5.66417 7.21876 5.80383 7.55816 C5.94349 7.89701 6.01331 8.31459 6.01331 8.8109 L6.01331 9.76903 C6.01331 10.7272 5.76099 11.4544 5.25633 11.9507 C4.75167 12.447 4.00888 12.6951 3.02794 12.6951 Z"/>
    <path transform="translate(78.0367, 0.127694)" style="fill:#e6e5e5; fill-rule:nonzero;stroke:none;" d="M0.898033 7.61408 L0.898033 6.27121 L3.40518 6.27121 C3.7585 6.27121 4.03642 6.14991 4.23895 5.90732 C4.44148 5.66473 4.54274 5.33256 4.54274 4.9108 L4.54274 2.74668 C4.54274 2.29599 4.44287 1.94963 4.24312 1.7076 C4.04337 1.46501 3.76406 1.34371 3.40518 1.34371 L0.898033 1.34371 L0.898033 0 L3.35343 0 C3.91262 0 4.3889 0.107107 4.78227 0.321322 C5.17565 0.53498 5.475 0.84434 5.68031 1.2494 C5.88562 1.65446 5.98828 2.14771 5.98828 2.72915 L5.98828 4.93668 C5.98828 5.50699 5.88423 5.99022 5.67613 6.38638 C5.46804 6.78254 5.16703 7.08634 4.77309 7.29777 C4.37972 7.50864 3.9065 7.61408 3.35343 7.61408 L0.898033 7.61408 Z M0 12.4389 L0 0 L1.42884 0 L1.42884 12.4389 L0 12.4389 Z"/>
    <path transform="translate(89.0743, 0.127694)" style="fill:#e6e5e5; fill-rule:nonzero;stroke:none;" d="M1.12922 9.6839 L1.15509 7.08327 L4.73971 0 L6.31377 0 L1.12922 9.6839 Z M0 12.4389 L0 0 L1.42884 0 L1.42884 12.4389 L0 12.4389 Z M5.05602 12.4389 L2.68659 5.79214 L3.62718 4.51687 L6.70687 12.4389 L5.05602 12.4389 Z"/>
    <path transform="translate(99.9367, 0.127694)" style="fill:#e6e5e5; fill-rule:nonzero;stroke:none;" d="M0 12.4306 L0 0 L1.29197 0 L4.96171 9.87252 L4.73053 10.0945 L4.73053 0 L6.10846 0 L6.10846 12.4306 L4.80815 12.4306 L1.14674 2.70328 L1.38628 2.48127 L1.38628 12.4306 L0 12.4306 Z"/>
    <path transform="translate(107.821, 0)" style="fill:#e6e5e5; fill-rule:nonzero;stroke:none;" d="M2.99456 5.86809 L6.02249 5.86809 L6.02249 9.49528 C6.02249 10.1741 5.90565 10.7516 5.67196 11.2279 C5.43827 11.7042 5.09887 12.0678 4.65375 12.3187 C4.20918 12.5697 3.67031 12.6951 3.03712 12.6951 C2.39281 12.6951 1.84392 12.5769 1.39045 12.3404 C0.936981 12.1034 0.591733 11.7612 0.354706 11.3139 C0.118235 10.866 0 10.3226 0 9.6839 L0 3.19069 C0 2.51188 0.116844 1.936 0.350533 1.46306 C0.584778 0.989561 0.924184 0.627343 1.36875 0.376406 C1.81387 0.125469 2.35275 0 2.98537 0 C3.60743 0 4.13657 0.121296 4.57279 0.363887 C5.00901 0.605922 5.34257 0.957846 5.57348 1.41966 C5.80439 1.88147 5.91984 2.44038 5.91984 3.09638 L5.91984 3.70397 L4.38834 3.70397 L4.38834 3.09638 C4.38834 2.54888 4.26705 2.12685 4.02446 1.83028 C3.78242 1.53372 3.43606 1.38544 2.98537 1.38544 C2.49518 1.38544 2.11321 1.54235 1.83946 1.85616 C1.56572 2.16997 1.42884 2.61481 1.42884 3.19069 L1.42884 9.6839 C1.42884 10.1969 1.56989 10.5961 1.85198 10.8816 C2.13464 11.1664 2.52968 11.3089 3.03712 11.3089 C3.53343 11.3089 3.91679 11.1536 4.1872 10.8432 C4.45817 10.5321 4.59365 10.0942 4.59365 9.5295 L4.59365 7.21097 L2.99456 7.21097 L2.99456 5.86809 Z"/>
   </g>
   <path transform="translate(84.1044, 81.12)" style="fill:#e6e5e5; fill-rule:nonzero;stroke:none;" d="M3.36 19.32 L3.36 4.32 L1.92 4.32 L1.92 19.32 L3.36 19.32 Z M5.28 5.28 L2.64 0 L0 5.28 L5.28 5.28 Z"/>
   <path transform="translate(94.7844, 81.12)" style="fill:#e6e5e5; fill-rule:nonzero;stroke:none;" d="M3.36 19.32 L3.36 4.32 L1.92 4.32 L1.92 19.32 L3.36 19.32 Z M5.28 5.28 L2.64 0 L0 5.28 L5.28 5.28 Z"/>
  </g>
 </g>
</svg>
